Coordinates
version=1
nRows=22
nColumns=33
inDegrees=yes

Units are S.I. units (second, meters, Newtons, ...)
Angles are in degrees.

endheader
time	ground_thorax_rot_x	ground_thorax_rot_y	ground_thorax_rot_z	ground_thorax_tx	ground_thorax_ty	ground_thorax_tz	clav_prot_r	clav_elev_r	scapula_abduction_r	scapula_elevation_r	scapula_upward_rot_r	scapula_winging_r	shoulder_elv_r	plane_of_elev_r	axial_rot_r	elbow_flexion_r	pro_sup_r	wrist_flex_r	wrist_dev_r	clav_prot_l	clav_elev_l	scapula_abduction_l	scapula_elevation_l	scapula_upward_rot_l	scapula_winging_l	shoulder_elv_l	plane_of_elev_l	axial_rot_l	elbow_flexion_l	pro_sup_l	wrist_flex_l	wrist_dev_l	
4.6200	38.043648	13.736882	17.201318	-192.583048	825.290847	6.289245	14.839883	37.504749	37.557844	45.000000	-45.000000	2074.747813	-465.513262	145.844836	180.000000	732.473176	48.439783	23.706309	10.794545	10.851292	-45.000000	-37.798823	45.000000	-44.694321	-2421.426792	1346.625873	137.024434	-179.997102	1449.371669	19.366853	9.510394	-22.459470	
4.6300	38.001013	14.184635	17.613800	-188.503496	824.162320	6.453057	14.948547	37.554918	37.733852	45.000000	-45.000000	2074.839265	-465.616571	145.800926	180.000000	732.328002	47.172123	23.531790	11.196604	10.818280	-45.000000	-37.870715	45.000000	-44.508299	-2421.638765	1346.556862	136.997200	-179.994788	1449.398504	18.680915	9.834154	-22.285337	
4.6400	37.939627	14.642956	18.062050	-184.236794	822.865356	6.605334	15.045445	37.599479	37.890928	45.000000	-45.000000	2074.954741	-465.736976	145.758582	180.000000	732.165515	45.970530	23.347610	11.599928	10.790443	-45.000000	-37.947274	45.000000	-44.271229	-2421.861369	1346.451582	136.976923	-179.990723	1449.396897	18.041091	10.183509	-22.095481	
4.6500	37.858418	15.113324	18.548309	-179.788207	821.395454	6.739889	15.147055	37.646262	38.031060	45.000000	-45.000000	2075.099183	-465.876021	145.728667	180.000000	731.990521	44.855549	23.156021	11.997727	10.752051	-45.000000	-38.024878	45.000000	-43.992876	-2422.097613	1346.312016	136.970233	-179.983220	1449.375200	17.474897	10.547061	-21.893771	
4.6600	37.757578	15.597818	19.077119	-175.165187	819.751008	6.851162	15.254709	37.694611	38.155619	45.000000	-45.000000	2075.266155	-466.037250	145.707279	180.000000	731.799370	43.848537	22.959565	12.386465	10.708413	-45.000000	-38.093799	45.000000	-43.708404	-2422.349620	1346.140996	136.967401	-179.970396	1449.328895	17.011401	10.913818	-21.682295	
4.6700	37.635542	16.101802	19.653386	-170.376599	817.933363	6.934894	15.363451	37.743329	38.259660	45.000000	-45.000000	2075.454047	-466.221836	145.694861	180.000000	731.593147	42.970940	22.760375	12.760699	10.667120	-45.000000	-38.150713	45.000000	-43.444192	-2422.619262	1345.943966	136.967159	-179.945704	1449.261576	16.679402	11.271012	-21.466177	
4.6800	37.489154	16.628231	20.283994	-165.433612	815.947320	6.988446	15.464336	37.788856	38.334813	45.000000	-45.000000	2075.661991	-466.427248	145.686352	180.000000	731.369981	42.239536	22.560346	13.116116	10.633972	-45.000000	-38.191728	45.000000	-43.224221	-2422.904095	1345.721026	136.963796	-179.906277	1449.169160	16.509423	11.611719	-21.249752	
4.6900	37.315865	17.175045	20.972543	-160.348838	813.801005	7.010760	15.567068	37.835708	38.383572	45.000000	-45.000000	2075.892255	-466.654831	145.690853	180.000000	731.135894	41.657076	22.364310	13.452415	10.596339	-45.000000	-38.212495	45.000000	-43.066980	-2423.205908	1345.478962	136.959513	-179.834694	1449.056197	16.514429	11.923588	-21.036777	
4.7000	37.114795	17.748662	21.723767	-155.136977	811.505999	7.001996	15.650755	37.875874	38.399188	45.000000	-45.000000	2076.138116	-466.900474	145.702797	180.000000	730.882543	41.226358	22.174217	13.771336	10.573229	-45.000000	-38.212435	45.000000	-42.995329	-2423.521130	1345.218059	136.944345	-179.721594	1448.919395	16.710701	12.205735	-20.832267	
4.7100	36.881376	18.355048	22.542752	-149.814603	809.076958	6.963082	15.696576	37.903409	38.371051	45.000000	-45.000000	2076.398599	-467.164108	145.720276	180.000000	730.606014	40.945995	21.992323	14.074538	10.579719	-45.000000	-38.195191	45.000000	-43.027480	-2423.847990	1344.942478	136.913484	-179.546277	1448.756945	17.109107	12.459038	-20.641026	
4.7200	36.613665	19.000034	23.434108	-144.401007	806.531491	6.895231	15.671658	37.905947	38.286991	45.000000	-45.000000	2076.666367	-467.438827	145.732048	180.000000	730.296492	40.809731	21.817632	14.363376	10.643065	-45.000000	-38.164396	45.000000	-43.164520	-2424.173777	1344.647514	136.859067	-179.315090	1448.566800	17.720253	12.692167	-20.468404	
4.7300	36.308495	19.675992	24.394604	-138.918599	803.889970	6.799650	15.588621	37.888803	38.152401	45.000000	-45.000000	2076.944723	-467.729333	145.745636	180.000000	729.952867	40.801612	21.651726	14.640651	10.747990	-45.000000	-38.118363	45.000000	-43.410756	-2424.497485	1344.342469	136.780876	-179.034373	1448.347217	18.535729	12.903100	-20.315277	
4.7400	35.965460	20.377015	25.418960	-133.393207	801.175424	6.677431	15.455285	37.850125	37.976415	45.000000	-45.000000	2077.231377	-468.035188	145.770158	180.000000	729.574587	40.901440	21.493173	14.905198	10.884858	-45.000000	-38.065291	45.000000	-43.726698	-2424.808340	1344.017761	136.695279	-178.765928	1448.103997	19.537878	13.087921	-20.183086	
4.7500	35.589666	21.079014	26.487151	-127.854134	798.413591	6.529675	15.343616	37.819263	37.781449	45.000000	-45.000000	2077.534142	-468.359815	145.822464	180.000000	729.170447	41.090455	21.340566	15.148304	10.991138	-45.000000	-38.002653	45.000000	-44.063000	-2425.122377	1343.672842	136.643901	-178.566904	1447.844468	20.703695	13.231135	-20.075677	
4.7600	35.179956	21.777918	27.590049	-122.333533	795.632832	6.357604	15.227550	37.783594	37.563320	45.000000	-45.000000	2077.852045	-468.694798	145.903023	180.000000	728.744086	41.347154	21.191324	15.370391	11.084741	-45.000000	-37.949486	45.000000	-44.368472	-2425.418466	1343.291848	136.627716	-178.455136	1447.561352	21.997036	13.344933	-19.988183	
4.7700	34.747777	22.443965	28.702548	-116.865576	792.863963	6.162810	15.181979	37.777373	37.343798	45.000000	-45.000000	2078.180789	-469.040177	146.006420	180.000000	728.304561	41.655819	21.044517	15.564220	11.115008	-45.000000	-37.880805	45.000000	-44.619030	-2425.725782	1342.885491	136.679537	-178.436440	1447.256058	23.383064	13.416433	-19.922289	
4.7800	34.294448	23.080663	29.816488	-111.484940	790.139531	5.947348	15.174383	37.785188	37.117831	45.000000	-45.000000	2078.513254	-469.390446	146.127781	180.000000	727.853517	42.003631	20.898399	15.731370	11.110291	-45.000000	-37.807791	45.000000	-44.792809	-2426.029503	1342.446866	136.787733	-178.483908	1446.920767	24.825433	13.459051	-19.872423	
4.7900	33.830389	23.670534	30.914775	-106.225409	787.492788	5.713942	15.242281	37.826261	36.893321	45.000000	-45.000000	2078.841320	-469.743010	146.250526	180.000000	727.397860	42.382931	20.752984	15.869093	11.052596	-45.000000	-37.707780	45.000000	-44.896982	-2426.346673	1341.989537	136.958181	-178.565243	1446.552496	26.291986	13.468611	-19.837327	
4.8000	33.346153	24.233589	32.004727	-101.118497	784.956390	5.466089	15.287092	37.857720	36.648833	45.000000	-45.000000	2079.164375	-470.091313	146.372807	180.000000	726.934538	42.788703	20.607595	15.987022	11.009763	-45.000000	-37.611807	45.000000	-44.954993	-2426.635309	1341.512448	137.136586	-178.619901	1446.137792	27.747412	13.475583	-19.804407	
4.8100	32.847263	24.757699	33.076728	-96.192944	782.561312	5.208427	15.330070	37.887384	36.392834	45.000000	-45.000000	2079.479083	-470.433695	146.486271	180.000000	726.471784	43.218816	20.462893	16.082258	10.968019	-45.000000	-37.506536	45.000000	-44.986552	-2426.902619	1341.032764	137.323977	-178.640461	1445.681296	29.160225	13.473174	-19.769639	
4.8200	32.325137	25.259150	34.138226	-91.474629	780.335918	4.946939	15.317069	37.885630	36.120202	45.000000	-45.000000	2079.793159	-470.769927	146.611368	180.000000	726.012122	43.672833	20.318653	16.157380	10.957684	-45.000000	-37.426798	45.000000	-45.000000	-2427.113983	1340.547058	137.490047	-178.619200	1445.183198	30.499702	13.471884	-19.721891	
4.8300	31.790047	25.727182	35.176191	-86.986536	778.305142	4.689289	15.281720	37.866880	35.837666	45.000000	-45.000000	2080.104299	-471.094435	146.738072	180.000000	725.564192	44.150975	20.176568	16.208461	10.962093	-45.000000	-37.360361	45.000000	-45.000000	-2427.284346	1340.067819	137.648155	-178.571165	1444.653253	31.739819	13.460371	-19.658538	
